# xmcd CD database file
#
# Track frame offsets:
#	165
#	27863
#	58860
#	91807
#	129862
#	158452
#	167993
#	179374
#	232366
#
# Disc length: 3636 seconds
#
# Revision: 0
# Processed by: cddbd v1.5.1PL2 Copyright (c) Steve Scherf et al.
# Submitted via: CDex 1.51
#
DISCID=6e0e3209
DTITLE=Marjolein - Music for the Mind, Body and Soul
DYEAR=1900
DGENRE=New Age
TTITLE0=Ease on Down (Part 1)
TTITLE1=Ease on Down (Part 2)
TTITLE2=Ease on Down (Part 3)
TTITLE3=Classical Movement (Part 1)
TTITLE4=Classical Movement (Part 2)
TTITLE5=Classical Movement (Part 3)
TTITLE6=Classical Movement (Part 4)
TTITLE7=Bring on the Breath (Part 1)
TTITLE8=Bring on the Breath (Part 2)
EXTD=
EXTT0=
EXTT1=
EXTT2=
EXTT3=
EXTT4=
EXTT5=
EXTT6=
EXTT7=
EXTT8=
PLAYORDER=
